<?xml version="1.0" encoding="UTF-8"?>
<svg xmlns="http://www.w3.org/2000/svg" xmlns:xlink="http://www.w3.org/1999/xlink" viewBox="0 0 1737.82 799.47">
  <defs>
    <style>
      .cls-1 {
        fill: #231d17;
      }

      .cls-1, .cls-2, .cls-3, .cls-4 {
        stroke-miterlimit: 10;
      }

      .cls-1, .cls-3, .cls-4 {
        stroke: #ead991;
      }

      .cls-1, .cls-4 {
        stroke-width: 7px;
      }

      .cls-2 {
        fill: none;
        stroke: #231f20;
      }

      .cls-5 {
        fill: #3f3426;
      }

      .cls-3 {
        fill: url(#radial-gradient);
        stroke-width: 5px;
      }

      .cls-4 {
        fill: url(#radial-gradient-2);
      }
    </style>
    <radialGradient id="radial-gradient" cx="873.69" cy="497.84" fx="850.51" fy="497.84" r="665.08" gradientTransform="translate(20.57 52.58) scale(1 .89)" gradientUnits="userSpaceOnUse">
      <stop offset=".51" stop-color="#c1b178"/>
      <stop offset=".77" stop-color="#aa9642"/>
    </radialGradient>
    <radialGradient id="radial-gradient-2" cx="879.47" cy="474.38" fx="879.47" fy="474.38" r="605.28" gradientTransform="translate(41.74 56.56) scale(.97 .89)" gradientUnits="userSpaceOnUse">
      <stop offset=".48" stop-color="#cfc398"/>
      <stop offset=".51" stop-color="#c8bb88"/>
      <stop offset=".59" stop-color="#bbab6a"/>
      <stop offset=".66" stop-color="#b2a053"/>
      <stop offset=".73" stop-color="#ac9946"/>
      <stop offset=".79" stop-color="#ab9742"/>
    </radialGradient>
  </defs>
  <g id="Layer_1" data-name="Layer 1">
    <path class="cls-3" d="M1734.22,526.31c-8.69,113.29-92.98,200.92-198.83,235.02-63.48,21.29-131.24,27.64-197.33,31.11-69.61,3.24-139.81,2.98-209.18,3.67-86.03.66-172.03.88-258.4.85-126.66-.28-248.97.8-376.37-3.6-129.98-6.49-294.97-10-399.07-94.75-49.74-40.41-82.78-100.64-89.39-164.64-8.51-73.3,15.96-149.18,64.94-204.23,124.52-140.07,370.65-146.36,546.6-154.34,226.85-6.72,453.94-7.76,680.49,8.57,133.55,10.76,284.23,32.73,374.39,141.15,46.17,55.36,68.57,129.35,62.16,201l-.02.18Z"/>
    <line class="cls-2" y1=".5" x2="3.24" y2=".5"/>
  </g>
  <g id="Layer_2" data-name="Layer 2">
    <path class="cls-4" d="M1646.91,516.03c-8.31,104.76-91.57,182.51-190.05,209.62-61.93,18.04-126.76,22.27-190.52,24.65-130.95,3.1-261.13,2.62-392.18,2.94-118.89-.28-233.84.84-353.37-3.74-116.59-6.21-265.37-10.8-354.62-93.28-37.48-34.55-62.24-82.71-67.71-133.65-6.81-58.24,10.6-118.43,46.66-164.65,82.93-105.37,231.25-128.5,357.88-141.01,99.38-8.63,199.5-9.92,299.11-11.49,151.35-1.82,303.2.06,454.35,10.9,112.09,9.16,235.93,25.6,319.33,107.1,50.86,49.37,77.81,122.03,71.12,192.43l-.02.18Z"/>
  </g>
  <g id="Layer_3" data-name="Layer 3">
    <path class="cls-1" d="M1567.67,506.72c-5.22,62.73-48.33,118.13-106.76,148.73-61.17,32.7-137.14,40.35-206.89,43.83-60.33,2.67-120.89,2.33-181.14,2.88-74.86.49-150.09.56-225.18.53-106.01-.25-210.05.57-316.49-4.83-121.16-6.46-276.95-23.04-325.63-143.09-22.83-55.59-13.16-120.66,23.35-169.42,31.25-42.15,76.77-69.89,129.37-88.68,86.29-30.06,180.02-37.15,271.58-41.76,145.56-5.73,290.31-6.87,436.08-2.92,51.48,1.52,102.98,3.49,154.34,7.17,99.67,7.51,210.45,21.5,284.22,88.71,45.16,40.83,69.1,100.58,63.18,158.66l-.02.17Z"/>
  </g>
  <g id="Layer_4" data-name="Layer 4">
    <path class="cls-5" d="M1438.52,493.49c-4.69,53.63-44.77,98.34-92.46,120.68-54.73,26.01-119.97,29.79-179.91,32.01-121.19,2.48-242.83,1.8-364,1.9-63.53-.15-126.67-.29-191.15-3.02-51.07-2.36-103.86-5.91-153.33-18.6-52.35-13.15-100.72-41.42-123.24-90.51-10.07-21.68-13.82-46.13-10.97-69.86,8-68.79,66.65-115.84,130.24-137.24,68.93-23.69,142.96-29.31,215.44-33.08,63.89-2.91,127.81-3.73,191.64-4.29,82.77-.62,165.99.73,248.9,4.55,86.29,5.19,182.05,7.97,256.28,55.96,47.15,30.3,78.78,85.18,72.57,141.35l-.02.16Z"/>
  </g>
</svg>